<svg width="29" height="40" viewBox="0 0 29 40" fill="none" xmlns="http://www.w3.org/2000/svg">
<path d="M20.6583 14.9683H13.0116V-6.10352e-05H20.6583C24.7849 -6.10352e-05 28.1416 3.35661 28.1416 7.48327C28.1416 11.6099 24.7849 14.9683 20.6583 14.9683ZM15.4633 12.5166H20.6583C23.4333 12.5166 25.6899 10.2583 25.6899 7.48494C25.6899 4.71161 23.4316 2.45327 20.6583 2.45327H15.4633V12.5166ZM15.4633 14.9683H7.81825C3.69158 14.9683 0.334918 11.6116 0.334918 7.48494C0.334918 3.35827 3.69158 -6.10352e-05 7.81825 -6.10352e-05H15.4649V14.9683H15.4633ZM7.81825 2.45161C5.04325 2.45161 2.78659 4.70994 2.78659 7.48327C2.78659 10.2566 5.04325 12.5166 7.81825 12.5166H13.0133V2.45161H7.81825ZM15.4633 27.4833H7.81825C3.69158 27.4833 0.334918 24.1266 0.334918 19.9999C0.334918 15.8733 3.69158 12.5166 7.81825 12.5166H15.4649V27.4833H15.4633ZM7.81825 14.9683C5.04325 14.9683 2.78659 17.2266 2.78659 19.9999C2.78659 22.7733 5.04492 25.0316 7.81825 25.0316H13.0133V14.9683H7.81825ZM7.85825 39.9999C3.70992 39.9999 0.333252 36.6433 0.333252 32.5166C0.333252 28.3899 3.68992 25.0333 7.81659 25.0333H15.4633V32.4349C15.4633 36.6066 12.0516 39.9999 7.85825 39.9999ZM7.81825 27.4833C6.48431 27.485 5.20551 28.0157 4.26227 28.959C3.31904 29.9022 2.78835 31.181 2.78659 32.5149C2.78659 35.2899 5.06159 37.5466 7.85992 37.5466C10.7016 37.5466 13.0149 35.2533 13.0149 32.4333V27.4833H7.81825ZM20.6583 27.4833H20.4949C16.3683 27.4833 13.0116 24.1266 13.0116 19.9999C13.0116 15.8733 16.3683 12.5166 20.4949 12.5166H20.6583C24.7849 12.5166 28.1416 15.8733 28.1416 19.9999C28.1416 24.1266 24.7849 27.4833 20.6583 27.4833ZM20.4966 14.9683C17.7216 14.9683 15.4649 17.2266 15.4649 19.9999C15.4649 22.7733 17.7233 25.0316 20.4966 25.0316H20.6599C23.4349 25.0316 25.6916 22.7733 25.6916 19.9999C25.6916 17.2266 23.4316 14.9683 20.6583 14.9683H20.4966Z" fill="#F24E1E"/>
</svg>
