<svg width="40" height="39" viewBox="0 0 40 39" fill="none" xmlns="http://www.w3.org/2000/svg">
<path d="M17.55 17.3836C17.3833 16.8669 17.2333 16.3669 17.0667 15.8502C16.9 15.3336 16.75 14.8502 16.6167 14.3669C16.4833 13.9002 16.3667 13.4669 16.25 13.0669H16.2167C16.0667 13.7836 15.8833 14.5002 15.65 15.2169C15.4 16.0169 15.15 16.8502 14.8833 17.6836C14.65 18.5336 14.4 19.3169 14.15 20.0169H18.3833C18.2833 19.6652 18.15 19.2502 18 18.8152C17.85 18.3669 17.7 17.8836 17.55 17.3836ZM32.9167 0.000244141H7.08333C3.16667 0.000244141 0 3.16691 0 7.08358V31.9169C0 35.8336 3.16667 39.0002 7.08333 39.0002H32.9167C36.8333 39.0002 40 35.8336 40 31.9169V7.08358C40 3.16691 36.8333 0.000244141 32.9167 0.000244141ZM24.5 27.5502H21.015C20.9 27.5669 20.7833 27.4836 20.75 27.3669L19.3833 23.4002H13.1833L11.9167 27.3169C11.8833 27.4669 11.75 27.5669 11.6 27.5519H8.46667C8.28333 27.5519 8.23333 27.4502 8.28333 27.2519L13.65 11.8002C13.7 11.6336 13.75 11.4502 13.8167 11.2502C13.8833 10.9002 13.9167 10.5336 13.9167 10.1669C13.9 10.0836 13.9667 10.0002 14.05 9.98357H18.3667C18.5 9.98357 18.5667 10.0336 18.5833 10.1169L24.6667 27.2836C24.7167 27.4652 24.6667 27.5502 24.5 27.5502ZM30.1667 27.3002C30.1667 27.4836 30.1017 27.5669 29.9517 27.5669H26.6833C26.5167 27.5669 26.4333 27.4652 26.4333 27.3002V14.4669C26.4333 14.3002 26.5017 14.2336 26.6517 14.2336H29.9517C30.1017 14.2336 30.1667 14.3169 30.1667 14.4669V27.3002ZM29.8183 12.2502C29.4333 12.6502 28.8667 12.8669 28.3 12.8336C27.75 12.8502 27.2167 12.6336 26.815 12.2502C26.4317 11.8336 26.2317 11.2836 26.2483 10.7169C26.2317 10.1502 26.4483 9.61691 26.8467 9.23357C27.25 8.85024 27.7833 8.65024 28.3333 8.65024C28.985 8.65024 29.4817 8.85024 29.85 9.23357C30.2167 9.63358 30.4167 10.1669 30.4 10.7169C30.4167 11.2836 30.2167 11.8336 29.8183 12.2502Z" fill="#FF9A00"/>
</svg>
