<svg width="479" height="381" viewBox="0 0 479 381" fill="none" xmlns="http://www.w3.org/2000/svg">
<path opacity="0.1" d="M20.9518 77.5097C15.0193 104.542 21.1836 133.786 42.9635 157.735C102.564 223.269 100.709 210.03 106.748 289.416C112.787 368.802 205.316 399.063 277.517 365.387C364.927 324.621 321.916 309.893 427.396 242.142C518.573 183.575 444.717 75.0792 303.49 30.4393C189.348 -5.63925 38.1344 -0.784964 20.9518 77.5097Z" fill="#6E217B"/>
<path d="M202.27 0.161072H373.778V153.303H202.27V0.161072Z" fill="#F4F4F4"/>
<path d="M373.778 0.161072H375.743V153.303H373.778V0.161072Z" fill="#F4F4F4"/>
<path opacity="0.05" d="M373.778 0.161072H375.743V153.303H373.778V0.161072Z" fill="#292A2E"/>
<path opacity="0.05" d="M332.229 105.689V65.6215H295.472V88.8999H238.535V130.116H214.337V153.303H238.535H243.197H365.527V105.689H332.229Z" fill="#292A2E"/>
<path opacity="0.34" d="M300.19 69.9719H326.957V74.3224H300.19V69.9719Z" fill="#FFFFFA"/>
<path opacity="0.34" d="M300.19 78.9868H326.957V83.3372H300.19V78.9868Z" fill="#FFFFFA"/>
<path opacity="0.34" d="M300.19 88.0016H326.957V92.3521H300.19V88.0016Z" fill="#FFFFFA"/>
<path opacity="0.34" d="M355.848 109.911H360.781V114.262H355.848V109.911Z" fill="#FFFFFA"/>
<path opacity="0.34" d="M355.848 118.926H360.781V123.277H355.848V118.926Z" fill="#FFFFFA"/>
<path opacity="0.34" d="M355.848 127.941H360.781V132.292H355.848V127.941Z" fill="#FFFFFA"/>
<path opacity="0.34" d="M346.721 109.911H351.654V114.262H346.721V109.911Z" fill="#FFFFFA"/>
<path opacity="0.34" d="M346.721 118.926H351.654V123.277H346.721V118.926Z" fill="#FFFFFA"/>
<path opacity="0.34" d="M346.721 127.941H351.654V132.292H346.721V127.941Z" fill="#FFFFFA"/>
<path opacity="0.34" d="M337.84 109.911H342.774V114.262H337.84V109.911Z" fill="#FFFFFA"/>
<path opacity="0.34" d="M337.84 118.926H342.774V123.277H337.84V118.926Z" fill="#FFFFFA"/>
<path opacity="0.34" d="M337.84 127.941H342.774V132.292H337.84V127.941Z" fill="#FFFFFA"/>
<path d="M373.778 75.8733H339.267V0.161072H336.413V75.8733H243.197V0.161072H240.344V75.8733H202.27V78.4216H240.344V153.303H243.197V78.4216H336.413V153.303H339.267V78.4216H373.778V75.8733Z" fill="white"/>
<path d="M195.437 153.119H380.609V158.212H195.437V153.119Z" fill="#F4F4F4"/>
<path opacity="0.1" d="M195.437 153.119H380.609V158.212H195.437V153.119Z" fill="#292A2E"/>
<path opacity="0.1" d="M380.61 153.119H383.284V158.212H380.61V153.119Z" fill="#292A2E"/>
<path opacity="0.1" d="M380.61 153.119H383.284V158.212H380.61V153.119Z" fill="#292A2E"/>
<path d="M375.743 6.68112L202.27 6.68112V2.89458L375.743 2.89458V6.68112Z" fill="white"/>
<path d="M375.743 13.7542L202.27 13.7542V9.96767L375.743 9.96767V13.7542Z" fill="white"/>
<path d="M375.743 20.8269L202.27 20.8269V17.0403L375.743 17.0403V20.8269Z" fill="white"/>
<path d="M375.743 27.8995L202.27 27.8995V24.113L375.743 24.113V27.8995Z" fill="white"/>
<path d="M375.743 34.9717L202.27 34.9717V31.1852L375.743 31.1852V34.9717Z" fill="white"/>
<path d="M357.318 39.2426H354.719V0.161083H357.318V39.2426Z" fill="white"/>
<path d="M356.239 44.8553C354.266 44.8553 352.667 43.4274 352.667 41.6661C352.667 39.9048 354.266 38.477 356.239 38.477C358.211 38.477 359.811 39.9048 359.811 41.6661C359.811 43.4274 358.211 44.8553 356.239 44.8553Z" fill="white"/>
<path d="M374.229 366.17L375.186 366.006L360.239 233.383L359.283 233.547L374.229 366.17Z" fill="#494949"/>
<path d="M318.574 366.17L319.531 366.006L304.584 233.383L303.628 233.547L318.574 366.17Z" fill="#494949"/>
<path d="M195.553 366.17L194.596 366.006L209.543 233.383L210.5 233.547L195.553 366.17Z" fill="#494949"/>
<path d="M251.208 366.17L250.251 366.006L265.198 233.383L266.154 233.547L251.208 366.17Z" fill="#494949"/>
<path d="M271.029 175.015L271.995 175.13L263.263 233.524L262.298 233.409L271.029 175.015Z" fill="#494949"/>
<path d="M371.251 175.015L372.216 175.13L363.484 233.523L362.519 233.408L371.251 175.015Z" fill="#494949"/>
<path d="M262.382 229.189H360.41C363.055 229.189 365.199 231.104 365.199 233.465V233.466C365.199 235.827 363.055 237.742 360.41 237.742H262.382C259.737 237.742 257.593 235.827 257.593 233.466V233.465C257.593 231.104 259.737 229.189 262.382 229.189Z" fill="#292A2E"/>
<path opacity="0.8" d="M262.382 229.189H360.41C363.055 229.189 365.199 231.104 365.199 233.465V233.466C365.199 235.827 363.055 237.742 360.41 237.742H262.382C259.737 237.742 257.593 235.827 257.593 233.466V233.465C257.593 231.104 259.737 229.189 262.382 229.189Z" fill="white"/>
<path d="M262.382 238.176H360.41C361.103 238.176 361.789 238.054 362.429 237.817C363.069 237.581 363.65 237.234 364.14 236.796C364.63 236.359 365.019 235.84 365.284 235.268C365.549 234.696 365.686 234.084 365.686 233.465C365.686 232.847 365.549 232.234 365.284 231.662C365.019 231.091 364.63 230.572 364.14 230.134C363.65 229.697 363.069 229.35 362.429 229.113C361.789 228.876 361.103 228.754 360.41 228.754H262.382C261.689 228.754 261.003 228.876 260.363 229.113C259.723 229.35 259.141 229.697 258.651 230.134C258.161 230.572 257.773 231.091 257.508 231.662C257.243 232.234 257.106 232.847 257.106 233.465C257.106 234.084 257.243 234.696 257.508 235.268C257.773 235.84 258.161 236.359 258.651 236.796C259.141 237.234 259.723 237.581 260.363 237.817C261.003 238.054 261.689 238.176 262.382 238.176ZM360.41 229.624C360.975 229.624 361.534 229.723 362.056 229.916C362.578 230.109 363.052 230.392 363.452 230.749C363.851 231.106 364.168 231.529 364.384 231.995C364.6 232.461 364.712 232.961 364.712 233.465C364.712 233.97 364.6 234.469 364.384 234.935C364.168 235.401 363.851 235.825 363.452 236.181C363.052 236.538 362.578 236.821 362.056 237.014C361.534 237.207 360.975 237.307 360.41 237.307H262.382C261.817 237.307 261.258 237.207 260.736 237.014C260.214 236.821 259.739 236.538 259.34 236.181C258.94 235.825 258.624 235.401 258.407 234.935C258.191 234.469 258.08 233.97 258.08 233.465C258.08 232.961 258.191 232.461 258.407 231.995C258.624 231.529 258.94 231.106 259.34 230.749C259.739 230.392 260.214 230.109 260.736 229.916C261.258 229.723 261.817 229.624 262.382 229.624H360.41Z" fill="#292A2E"/>
<path d="M208.578 229.189H306.607C309.251 229.189 311.396 231.104 311.396 233.465V233.466C311.396 235.827 309.251 237.742 306.607 237.742H208.578C205.933 237.742 203.789 235.827 203.789 233.466V233.465C203.789 231.104 205.933 229.189 208.578 229.189Z" fill="white"/>
<path d="M208.578 238.176H306.606C307.299 238.176 307.985 238.054 308.625 237.817C309.266 237.581 309.847 237.234 310.337 236.796C310.827 236.359 311.216 235.84 311.481 235.268C311.746 234.696 311.882 234.084 311.882 233.465C311.882 232.847 311.746 232.234 311.481 231.662C311.216 231.091 310.827 230.572 310.337 230.134C309.847 229.697 309.266 229.35 308.625 229.113C307.985 228.876 307.299 228.754 306.606 228.754H208.578C207.885 228.754 207.199 228.876 206.559 229.113C205.919 229.35 205.338 229.697 204.848 230.134C204.358 230.572 203.969 231.091 203.704 231.662C203.439 232.234 203.302 232.847 203.302 233.465C203.302 234.084 203.439 234.696 203.704 235.268C203.969 235.84 204.358 236.359 204.848 236.796C205.338 237.234 205.919 237.581 206.559 237.817C207.199 238.054 207.885 238.176 208.578 238.176ZM306.606 229.624C307.171 229.624 307.731 229.723 308.253 229.916C308.775 230.109 309.249 230.392 309.648 230.749C310.048 231.106 310.365 231.529 310.581 231.995C310.797 232.461 310.908 232.961 310.908 233.465C310.908 233.97 310.797 234.469 310.581 234.935C310.365 235.401 310.048 235.825 309.648 236.181C309.249 236.538 308.775 236.821 308.253 237.014C307.731 237.207 307.171 237.307 306.606 237.307H208.578C208.013 237.307 207.454 237.207 206.932 237.014C206.41 236.821 205.936 236.538 205.536 236.181C205.137 235.825 204.82 235.401 204.604 234.935C204.387 234.469 204.276 233.97 204.276 233.465C204.276 232.961 204.387 232.461 204.604 231.995C204.82 231.529 205.137 231.106 205.536 230.749C205.936 230.392 206.41 230.109 206.932 229.916C207.454 229.723 208.013 229.624 208.578 229.624H306.606Z" fill="#292A2E"/>
<path d="M276.4 175.072H371.471C373.025 175.072 374.527 174.567 375.695 173.651C376.863 172.735 377.617 171.471 377.818 170.094L384.107 126.973C384.224 126.167 384.148 125.347 383.883 124.57C383.617 123.792 383.169 123.074 382.569 122.463C381.968 121.852 381.228 121.363 380.399 121.028C379.569 120.693 378.669 120.52 377.759 120.52H282.689C281.134 120.52 279.633 121.025 278.465 121.941C277.297 122.856 276.542 124.12 276.341 125.497L270.053 168.619C269.936 169.425 270.012 170.244 270.277 171.021C270.542 171.799 270.99 172.517 271.591 173.128C272.191 173.739 272.931 174.228 273.76 174.563C274.59 174.898 275.49 175.072 276.4 175.072Z" fill="#292A2E"/>
<path opacity="0.8" d="M276.4 175.072H371.471C373.025 175.072 374.527 174.567 375.695 173.651C376.863 172.735 377.617 171.471 377.818 170.094L384.107 126.973C384.224 126.167 384.148 125.347 383.883 124.57C383.617 123.792 383.169 123.074 382.569 122.463C381.968 121.852 381.228 121.363 380.399 121.028C379.569 120.693 378.669 120.52 377.759 120.52H282.689C281.134 120.52 279.633 121.025 278.465 121.941C277.297 122.856 276.542 124.12 276.341 125.497L270.053 168.619C269.936 169.425 270.012 170.244 270.277 171.021C270.542 171.799 270.99 172.517 271.591 173.128C272.191 173.739 272.931 174.228 273.76 174.563C274.59 174.898 275.49 175.072 276.4 175.072Z" fill="white"/>
<path d="M276.399 175.506H371.471C373.142 175.503 374.756 174.958 376.012 173.973C377.268 172.988 378.081 171.63 378.301 170.15L384.589 127.029C384.716 126.161 384.633 125.28 384.348 124.443C384.063 123.606 383.581 122.833 382.934 122.176C382.288 121.519 381.492 120.992 380.599 120.631C379.707 120.271 378.738 120.084 377.758 120.084H282.688C281.017 120.088 279.403 120.632 278.147 121.617C276.891 122.602 276.078 123.961 275.859 125.441L269.57 168.563C269.443 169.43 269.525 170.311 269.811 171.148C270.096 171.985 270.578 172.758 271.224 173.415C271.871 174.072 272.667 174.599 273.559 174.959C274.452 175.32 275.42 175.507 276.399 175.506ZM377.758 120.954C378.599 120.954 379.431 121.114 380.197 121.424C380.963 121.734 381.647 122.186 382.202 122.75C382.757 123.314 383.17 123.978 383.415 124.696C383.66 125.415 383.731 126.171 383.622 126.916L377.334 170.038C377.145 171.309 376.447 172.475 375.369 173.321C374.29 174.166 372.905 174.634 371.47 174.637H276.399C275.559 174.637 274.727 174.476 273.961 174.167C273.195 173.857 272.512 173.405 271.957 172.84C271.402 172.276 270.989 171.613 270.744 170.894C270.499 170.176 270.428 169.419 270.537 168.675L276.824 125.553C277.013 124.283 277.711 123.116 278.789 122.271C279.868 121.425 281.253 120.957 282.688 120.954L377.758 120.954Z" fill="#292A2E"/>
<path d="M271.024 175.072H366.095C367.649 175.072 369.151 174.567 370.319 173.651C371.486 172.735 372.241 171.471 372.442 170.094L378.732 126.973C378.85 126.167 378.773 125.348 378.508 124.57C378.243 123.792 377.795 123.074 377.194 122.464C376.594 121.853 375.854 121.363 375.025 121.028C374.195 120.693 373.296 120.52 372.385 120.52H277.312C275.758 120.52 274.257 121.025 273.089 121.941C271.921 122.856 271.166 124.12 270.965 125.497L264.677 168.619C264.559 169.425 264.636 170.244 264.901 171.021C265.166 171.799 265.614 172.517 266.215 173.128C266.815 173.739 267.555 174.228 268.384 174.563C269.214 174.898 270.114 175.072 271.024 175.072Z" fill="white"/>
<path d="M271.024 175.506H366.095C367.767 175.503 369.38 174.958 370.636 173.973C371.892 172.988 372.705 171.63 372.925 170.15L379.213 127.029C379.34 126.161 379.258 125.28 378.972 124.443C378.687 123.606 378.205 122.834 377.558 122.176C376.912 121.519 376.116 120.993 375.224 120.632C374.331 120.271 373.363 120.084 372.383 120.084H277.313C275.641 120.088 274.027 120.632 272.771 121.617C271.515 122.602 270.702 123.961 270.482 125.441L264.194 168.563C264.067 169.43 264.15 170.311 264.435 171.148C264.72 171.985 265.202 172.758 265.849 173.415C266.495 174.072 267.291 174.598 268.184 174.959C269.076 175.32 270.044 175.506 271.024 175.506ZM372.383 120.954C373.224 120.954 374.055 121.115 374.821 121.425C375.587 121.734 376.27 122.187 376.825 122.751C377.38 123.315 377.794 123.979 378.039 124.697C378.283 125.415 378.354 126.172 378.245 126.917L371.959 170.038C371.771 171.309 371.072 172.475 369.994 173.321C368.916 174.166 367.53 174.634 366.095 174.637H271.024C270.183 174.637 269.351 174.477 268.585 174.167C267.819 173.857 267.136 173.405 266.581 172.841C266.026 172.277 265.612 171.613 265.367 170.895C265.122 170.176 265.051 169.419 265.16 168.675L271.448 125.553C271.637 124.283 272.335 123.116 273.413 122.271C274.492 121.425 275.877 120.957 277.313 120.954L372.383 120.954Z" fill="#292A2E"/>
<path d="M197.122 184.917L198.091 185.005L177.564 366.462L176.595 366.375L197.122 184.917Z" fill="#494949"/>
<path d="M221.737 174.85L202.979 123.361C202.649 122.457 202.007 121.668 201.145 121.109C200.283 120.55 199.245 120.249 198.179 120.249H116.886C116.089 120.249 115.304 120.417 114.594 120.74C113.884 121.063 113.27 121.531 112.802 122.107C112.334 122.683 112.025 123.349 111.9 124.052C111.776 124.754 111.84 125.473 112.086 126.15L135.714 177.64C136.043 178.545 136.685 179.334 137.547 179.893C138.41 180.452 139.448 180.753 140.513 180.753H216.938C217.735 180.753 218.52 180.585 219.23 180.262C219.94 179.939 220.554 179.47 221.023 178.894C221.491 178.318 221.8 177.652 221.924 176.949C222.048 176.246 221.984 175.527 221.737 174.85Z" fill="#292A2E"/>
<path d="M221.737 174.85L202.979 123.361C202.649 122.457 202.007 121.668 201.145 121.109C200.283 120.55 199.245 120.249 198.179 120.249H116.886C116.089 120.249 115.304 120.417 114.594 120.74C113.884 121.063 113.27 121.531 112.802 122.107C112.334 122.683 112.025 123.349 111.9 124.052C111.776 124.754 111.84 125.473 112.086 126.15L135.714 177.64C136.043 178.545 136.685 179.334 137.547 179.893C138.41 180.452 139.448 180.753 140.513 180.753H216.938C217.735 180.753 218.52 180.585 219.23 180.262C219.94 179.939 220.554 179.47 221.023 178.894C221.491 178.318 221.8 177.652 221.924 176.949C222.048 176.246 221.984 175.527 221.737 174.85Z" fill="#292A2E"/>
<path d="M206.435 176.576H257.594C258.869 176.576 259.902 177.499 259.902 178.637V178.69C259.902 179.828 258.869 180.751 257.594 180.751H206.435C205.161 180.751 204.127 179.828 204.127 178.69V178.637C204.127 177.499 205.161 176.576 206.435 176.576Z" fill="#292A2E"/>
<path d="M206.435 176.576H257.594C258.869 176.576 259.902 177.499 259.902 178.637V178.69C259.902 179.828 258.869 180.751 257.594 180.751H206.435C205.161 180.751 204.127 179.828 204.127 178.69V178.637C204.127 177.499 205.161 176.576 206.435 176.576Z" fill="#292A2E"/>
<path d="M169.347 160.169C164.92 160.169 161.331 156.965 161.331 153.012C161.331 149.059 164.92 145.855 169.347 145.855C173.773 145.855 177.362 149.059 177.362 153.012C177.362 156.965 173.773 160.169 169.347 160.169Z" fill="white"/>
<path d="M374.089 184.92L394.631 366.376L393.662 366.464L373.12 185.008L374.089 184.92Z" fill="#494949"/>
<path d="M289.219 184.92L309.76 366.376L308.792 366.463L288.25 185.007L289.219 184.92Z" fill="#494949"/>
<path d="M112.252 184.917L113.221 185.005L92.6931 366.462L91.7242 366.375L112.252 184.917Z" fill="#494949"/>
<path d="M93.7412 181.399H391.255C393.459 181.399 395.245 182.994 395.245 184.962C395.245 186.929 393.459 188.524 391.255 188.524H93.7412C91.5377 188.524 89.7513 186.929 89.7513 184.962C89.7513 182.994 91.5377 181.399 93.7412 181.399Z" fill="#292A2E"/>
<path opacity="0.8" d="M93.7412 181.399H391.255C393.459 181.399 395.245 182.994 395.245 184.962C395.245 186.929 393.459 188.524 391.255 188.524H93.7412C91.5377 188.524 89.7513 186.929 89.7513 184.962C89.7513 182.994 91.5377 181.399 93.7412 181.399Z" fill="white"/>
<path d="M93.7405 188.959H391.253C391.845 188.964 392.432 188.865 392.981 188.667C393.529 188.468 394.028 188.175 394.449 187.803C394.87 187.431 395.204 186.989 395.432 186.501C395.66 186.013 395.777 185.49 395.777 184.962C395.777 184.433 395.66 183.91 395.432 183.422C395.204 182.935 394.87 182.492 394.449 182.12C394.028 181.749 393.529 181.455 392.981 181.257C392.432 181.058 391.845 180.959 391.253 180.964H93.7405C93.1487 180.959 92.5616 181.058 92.0131 181.257C91.4645 181.455 90.9655 181.749 90.5448 182.12C90.1242 182.492 89.7902 182.935 89.5623 183.422C89.3344 183.91 89.217 184.433 89.217 184.962C89.217 185.49 89.3344 186.013 89.5623 186.501C89.7902 186.989 90.1242 187.431 90.5448 187.803C90.9655 188.175 91.4645 188.468 92.0131 188.667C92.5616 188.865 93.1487 188.964 93.7405 188.959ZM391.253 181.834C391.717 181.829 392.177 181.906 392.607 182.061C393.036 182.216 393.427 182.446 393.757 182.737C394.087 183.028 394.348 183.374 394.527 183.756C394.706 184.138 394.798 184.548 394.798 184.962C394.798 185.375 394.706 185.785 394.527 186.167C394.348 186.549 394.087 186.895 393.757 187.186C393.427 187.477 393.036 187.707 392.607 187.862C392.177 188.017 391.717 188.094 391.253 188.089H93.7405C93.2771 188.094 92.8171 188.017 92.3874 187.862C91.9576 187.707 91.5666 187.477 91.2369 187.186C90.9072 186.895 90.6455 186.549 90.4669 186.167C90.2883 185.785 90.1963 185.375 90.1963 184.962C90.1963 184.548 90.2883 184.138 90.4669 183.756C90.6455 183.374 90.9072 183.028 91.2369 182.737C91.5666 182.446 91.9576 182.216 92.3874 182.061C92.8171 181.906 93.2771 181.829 93.7405 181.834H391.253Z" fill="#292A2E"/>
<path d="M93.7411 181.399H303.14C305.344 181.399 307.13 182.994 307.13 184.962C307.13 186.929 305.344 188.524 303.14 188.524H93.7411C91.5376 188.524 89.7512 186.929 89.7512 184.962C89.7512 182.994 91.5376 181.399 93.7411 181.399Z" fill="white"/>
<path d="M93.7408 188.959H303.141C304.32 188.948 305.447 188.522 306.276 187.773C307.106 187.025 307.571 186.015 307.571 184.962C307.571 183.909 307.106 182.898 306.276 182.15C305.447 181.401 304.32 180.975 303.141 180.964H93.7408C93.149 180.959 92.5619 181.058 92.0134 181.257C91.4648 181.455 90.9658 181.749 90.5451 182.12C90.1245 182.492 89.7905 182.935 89.5626 183.422C89.3347 183.91 89.2173 184.433 89.2173 184.962C89.2173 185.49 89.3347 186.013 89.5626 186.501C89.7905 186.989 90.1245 187.431 90.5451 187.803C90.9658 188.175 91.4648 188.468 92.0134 188.667C92.5619 188.865 93.149 188.964 93.7408 188.959ZM303.141 181.834C304.063 181.844 304.943 182.177 305.591 182.763C306.239 183.348 306.602 184.138 306.602 184.962C306.602 185.785 306.239 186.575 305.591 187.16C304.943 187.746 304.063 188.079 303.141 188.089H93.7408C93.2774 188.094 92.8174 188.017 92.3877 187.862C91.9579 187.707 91.5669 187.477 91.2372 187.186C90.9075 186.895 90.6458 186.549 90.4672 186.167C90.2886 185.785 90.1966 185.375 90.1966 184.962C90.1966 184.548 90.2886 184.138 90.4672 183.756C90.6458 183.374 90.9075 183.028 91.2372 182.737C91.5669 182.446 91.9579 182.216 92.3877 182.061C92.8174 181.906 93.2774 181.829 93.7408 181.834H303.141Z" fill="#292A2E"/>
<path d="M85.7161 308.615C85.78 308.615 85.8434 308.604 85.9025 308.582C85.9616 308.561 86.0152 308.528 86.0603 308.488C86.7464 307.876 87.8649 296.636 90.877 263.173C92.1094 249.481 93.2737 236.548 94.1234 228.688C94.1837 228.127 94.4277 228.062 94.5075 228.04C95.6708 227.727 99.2074 230.217 101.182 232.398C101.263 232.488 101.381 232.545 101.509 232.557C101.638 232.569 101.767 232.535 101.867 232.463C101.967 232.39 102.032 232.285 102.045 232.17C102.059 232.055 102.021 231.941 101.94 231.851C100.634 230.409 96.3779 226.63 94.2276 227.207C93.7942 227.324 93.2537 227.66 93.1539 228.605C92.3032 236.471 91.139 249.408 89.9061 263.104C88.0757 283.439 86.0024 306.476 85.3207 307.927C85.2685 307.992 85.2373 308.069 85.2307 308.148C85.2241 308.228 85.2422 308.308 85.283 308.379C85.3239 308.45 85.386 308.51 85.4623 308.551C85.5387 308.593 85.6265 308.615 85.7161 308.615Z" fill="#494949"/>
<path d="M95.3746 243.111C87.2946 237.328 84.6166 228.326 89.393 223.005C94.1695 217.685 104.592 218.06 112.672 223.843C120.752 229.626 123.43 238.628 118.653 243.948C113.877 249.269 103.455 248.894 95.3746 243.111Z" fill="#0CBC8B"/>
<path opacity="0.2" d="M95.3746 243.111C87.2946 237.328 84.6166 228.326 89.393 223.005C94.1695 217.685 104.592 218.06 112.672 223.843C120.752 229.626 123.43 238.628 118.653 243.948C113.877 249.269 103.455 248.894 95.3746 243.111Z" fill="white"/>
<path d="M116.388 245.301C116.434 245.301 116.479 245.29 116.518 245.268C116.557 245.245 116.589 245.214 116.608 245.176C116.628 245.139 116.635 245.098 116.629 245.057C116.624 245.016 116.605 244.977 116.575 244.945L93.548 220.15C93.5068 220.106 93.4475 220.078 93.3831 220.072C93.3188 220.067 93.2547 220.085 93.205 220.121C93.1553 220.158 93.124 220.211 93.118 220.269C93.112 220.326 93.1319 220.383 93.1731 220.428L116.2 245.223C116.223 245.248 116.252 245.267 116.284 245.281C116.317 245.294 116.352 245.301 116.388 245.301Z" fill="white"/>
<path d="M80.6942 303.3C80.7719 303.3 80.8484 303.283 80.9174 303.252C80.9865 303.22 81.046 303.174 81.091 303.117C81.136 303.06 81.1651 302.995 81.1761 302.926C81.187 302.858 81.1794 302.788 81.1538 302.722L72.5035 280.511C72.2488 279.858 71.8149 279.273 71.2413 278.809C70.6678 278.345 69.9731 278.017 69.2207 277.855C68.4684 277.693 67.6825 277.702 66.9351 277.881C66.1877 278.06 65.5026 278.404 64.9425 278.881L60.3693 282.782C60.2759 282.861 60.2217 282.971 60.2187 283.086C60.2158 283.202 60.2642 283.313 60.3535 283.397C60.4427 283.48 60.5654 283.528 60.6946 283.531C60.8237 283.534 60.9488 283.49 61.0422 283.411L65.615 279.51C66.0571 279.133 66.598 278.862 67.1881 278.72C67.7782 278.579 68.3986 278.572 68.9925 278.7C69.5865 278.828 70.135 279.087 70.5878 279.453C71.0406 279.819 71.3831 280.281 71.5842 280.796L80.2335 303.008C80.2668 303.094 80.3291 303.168 80.4116 303.22C80.4942 303.272 80.5929 303.3 80.6942 303.3Z" fill="#494949"/>
<path d="M47.594 295.079C41.6059 290.847 41.9618 281.539 48.3888 274.288C54.8158 267.038 64.8801 264.592 70.8682 268.824C76.8562 273.056 76.5004 282.364 70.0734 289.615C63.6464 296.865 53.582 299.311 47.594 295.079Z" fill="#0CBC8B"/>
<path d="M89.6434 307.199C89.7527 307.199 89.8589 307.166 89.9448 307.105C90.0306 307.045 90.0912 306.96 90.1166 306.865L104.635 252.671C104.734 252.302 104.946 251.964 105.246 251.695C105.546 251.426 105.924 251.237 106.337 251.147C106.75 251.057 107.183 251.07 107.588 251.186C107.994 251.302 108.355 251.515 108.634 251.802L113.108 256.419C113.15 256.463 113.201 256.499 113.258 256.525C113.316 256.551 113.378 256.567 113.442 256.571C113.506 256.576 113.571 256.569 113.632 256.551C113.693 256.533 113.75 256.504 113.798 256.467C113.847 256.429 113.887 256.383 113.915 256.332C113.944 256.28 113.961 256.224 113.965 256.167C113.97 256.11 113.961 256.052 113.941 255.998C113.92 255.943 113.887 255.893 113.845 255.85L109.37 251.233C108.975 250.825 108.46 250.522 107.884 250.358C107.308 250.193 106.693 250.174 106.105 250.302C105.518 250.43 104.981 250.701 104.555 251.083C104.128 251.466 103.828 251.946 103.687 252.471L89.172 306.665C89.1427 306.777 89.1642 306.894 89.2317 306.992C89.2992 307.09 89.4073 307.16 89.5324 307.187C89.5687 307.194 89.6059 307.199 89.6434 307.199Z" fill="#494949"/>
<path d="M94.9992 268.458C93.2347 259.347 97.9046 251.019 105.43 249.857C112.955 248.695 120.486 255.139 122.25 264.251C124.015 273.362 119.345 281.69 111.82 282.852C104.295 284.014 96.7638 277.57 94.9992 268.458Z" fill="#0CBC8B"/>
<path d="M85.7157 308.615C85.7357 308.615 85.7557 308.614 85.7756 308.612C85.8391 308.605 85.9004 308.587 85.9561 308.559C86.0118 308.531 86.0608 308.493 86.1002 308.448C86.1395 308.403 86.1686 308.352 86.1857 308.297C86.2028 308.242 86.2075 308.184 86.1997 308.127L76.9306 240.928C76.8295 240.196 76.4939 239.506 75.964 238.94C75.4341 238.374 74.7324 237.957 73.9434 237.739C73.1544 237.521 72.3115 237.51 71.5162 237.71C70.7209 237.909 70.0069 238.309 69.4601 238.862L58.8655 249.576C58.78 249.663 58.7365 249.776 58.7446 249.891C58.7526 250.006 58.8115 250.114 58.9084 250.19C59.0052 250.266 59.1321 250.305 59.261 250.298C59.39 250.291 59.5104 250.238 59.5959 250.152L70.1905 239.437C70.613 239.01 71.1648 238.701 71.7795 238.547C72.3942 238.393 73.0456 238.401 73.6554 238.569C74.2652 238.738 74.8075 239.06 75.2171 239.498C75.6266 239.935 75.886 240.469 75.964 241.034L85.2327 308.234C85.2472 308.339 85.3043 308.436 85.3932 308.506C85.4822 308.576 85.5969 308.615 85.7157 308.615Z" fill="#494949"/>
<path d="M47.9994 255.531C44.3029 249.563 48.6521 241.098 57.7136 236.622C66.7751 232.147 77.1175 233.356 80.814 239.323C84.5105 245.29 80.1613 253.755 71.0998 258.231C62.0382 262.707 51.6958 261.498 47.9994 255.531Z" fill="#0CBC8B"/>
<path opacity="0.2" d="M47.594 295.079C41.6059 290.847 41.9618 281.539 48.3888 274.288C54.8158 267.038 64.8801 264.592 70.8682 268.824C76.8562 273.056 76.5004 282.364 70.0734 289.615C63.6464 296.865 53.582 299.311 47.594 295.079Z" fill="white"/>
<path opacity="0.5" d="M94.9992 268.458C93.2347 259.347 97.9046 251.019 105.43 249.857C112.955 248.695 120.486 255.139 122.25 264.251C124.015 273.362 119.345 281.69 111.82 282.852C104.295 284.014 96.7638 277.57 94.9992 268.458Z" fill="white"/>
<path opacity="0.5" d="M47.9994 255.531C44.3029 249.563 48.6521 241.098 57.7136 236.622C66.7751 232.147 77.1175 233.356 80.814 239.323C84.5105 245.29 80.1613 253.755 71.0998 258.231C62.0382 262.707 51.6958 261.498 47.9994 255.531Z" fill="white"/>
<path d="M73.8605 365.634H97.572L101.501 297.893H69.9315L73.8605 365.634Z" fill="#292A2E"/>
<path opacity="0.3" d="M73.8605 365.634H97.572L101.501 297.893H69.9315L73.8605 365.634Z" fill="white"/>
<path d="M47.5932 295.293C47.6299 295.293 47.6662 295.286 47.6992 295.272C47.7323 295.257 47.7613 295.237 47.784 295.211L71.0592 268.956C71.0993 268.911 71.1176 268.853 71.1102 268.796C71.1028 268.739 71.0701 268.686 71.0195 268.65C70.9689 268.615 70.9044 268.598 70.8403 268.605C70.7761 268.612 70.7175 268.641 70.6774 268.686L47.4023 294.941C47.3738 294.973 47.356 295.011 47.351 295.052C47.3459 295.093 47.3538 295.134 47.3737 295.171C47.3937 295.207 47.4248 295.239 47.4637 295.26C47.5025 295.282 47.5474 295.293 47.5932 295.293Z" fill="white"/>
<path d="M49.5475 257.634C49.5993 257.634 49.6496 257.618 49.6911 257.591L79.4745 238.172C79.5267 238.138 79.5616 238.087 79.5716 238.03C79.5815 237.973 79.5657 237.915 79.5276 237.868C79.4895 237.822 79.4322 237.791 79.3684 237.782C79.3046 237.773 79.2394 237.787 79.1872 237.821L49.4038 257.24C49.3629 257.267 49.3327 257.305 49.3175 257.349C49.3023 257.392 49.3028 257.439 49.3189 257.482C49.3351 257.526 49.3661 257.563 49.4075 257.59C49.449 257.617 49.4988 257.631 49.5499 257.631L49.5475 257.634Z" fill="white"/>
<path d="M113.03 282.569C113.052 282.569 113.073 282.566 113.093 282.561C113.155 282.546 113.209 282.51 113.241 282.46C113.273 282.41 113.282 282.351 113.266 282.295L103.785 250.576C103.767 250.522 103.726 250.476 103.67 250.448C103.615 250.421 103.55 250.413 103.489 250.428C103.427 250.442 103.375 250.478 103.342 250.526C103.31 250.575 103.3 250.633 103.314 250.688L112.795 282.407C112.809 282.453 112.839 282.494 112.882 282.523C112.925 282.553 112.977 282.569 113.03 282.569Z" fill="white"/>
<path d="M62.4131 366.244H403.468C403.558 366.244 403.645 366.212 403.709 366.155C403.773 366.098 403.809 366.021 403.809 365.94C403.809 365.859 403.773 365.782 403.709 365.725C403.645 365.668 403.558 365.636 403.468 365.636H62.4141C62.3237 365.636 62.237 365.668 62.1731 365.725C62.1092 365.782 62.0733 365.859 62.0733 365.94C62.0733 366.021 62.1092 366.098 62.1731 366.155C62.237 366.212 62.3237 366.244 62.4141 366.244H62.4131Z" fill="#292A2E"/>
<g opacity="0.65">
<path d="M62.4131 366.244H403.468C403.558 366.244 403.645 366.212 403.709 366.155C403.773 366.098 403.809 366.021 403.809 365.94C403.809 365.859 403.773 365.782 403.709 365.725C403.645 365.668 403.558 365.636 403.468 365.636H62.4141C62.3237 365.636 62.237 365.668 62.1731 365.725C62.1092 365.782 62.0733 365.859 62.0733 365.94C62.0733 366.021 62.1092 366.098 62.1731 366.155C62.237 366.212 62.3237 366.244 62.4141 366.244H62.4131Z" fill="#292A2E"/>
</g>
<path d="M113.373 78.8786C113.233 78.8786 113.095 78.854 112.966 78.8063C112.837 78.7585 112.719 78.6885 112.621 78.6002C112.522 78.512 112.443 78.4072 112.39 78.2919C112.336 78.1766 112.309 78.053 112.309 77.9282V51.1119C112.309 50.8598 112.421 50.6181 112.621 50.4398C112.82 50.2616 113.091 50.1615 113.373 50.1615C113.656 50.1615 113.926 50.2616 114.126 50.4398C114.326 50.6181 114.438 50.8598 114.438 51.1119V77.9282C114.438 78.1802 114.326 78.422 114.126 78.6002C113.926 78.7785 113.656 78.8786 113.373 78.8786Z" fill="#262626"/>
<path d="M123.172 65.4702H103.574C103.432 65.473 103.291 65.4504 103.16 65.4038C103.028 65.3573 102.908 65.2877 102.807 65.1992C102.705 65.1107 102.625 65.0051 102.57 64.8884C102.515 64.7718 102.487 64.6466 102.487 64.52C102.487 64.3935 102.515 64.2682 102.57 64.1516C102.625 64.035 102.705 63.9293 102.807 63.8408C102.908 63.7523 103.028 63.6827 103.16 63.6362C103.291 63.5897 103.432 63.5671 103.574 63.5698H123.172C123.45 63.5751 123.715 63.6776 123.91 63.8552C124.104 64.0328 124.214 64.2715 124.214 64.52C124.214 64.7686 124.104 65.0072 123.91 65.1849C123.715 65.3625 123.45 65.4649 123.172 65.4702Z" fill="#262626"/>
<path d="M416.25 253.295C416.051 253.295 415.86 253.224 415.72 253.098C415.579 252.973 415.5 252.802 415.5 252.625V238.241C415.497 238.152 415.515 238.063 415.552 237.98C415.588 237.896 415.643 237.82 415.713 237.756C415.783 237.692 415.867 237.641 415.959 237.607C416.051 237.572 416.15 237.554 416.251 237.554C416.351 237.554 416.45 237.572 416.542 237.607C416.635 237.641 416.718 237.692 416.788 237.756C416.858 237.82 416.913 237.896 416.95 237.98C416.986 238.063 417.004 238.152 417.001 238.241V252.625C417.001 252.713 416.982 252.8 416.944 252.881C416.906 252.962 416.851 253.036 416.781 253.099C416.712 253.161 416.629 253.21 416.538 253.244C416.447 253.277 416.349 253.295 416.25 253.295Z" fill="#262626"/>
<path d="M421.507 246.103H410.995C410.895 246.106 410.795 246.09 410.702 246.057C410.609 246.025 410.524 245.976 410.452 245.913C410.38 245.851 410.323 245.776 410.284 245.694C410.245 245.611 410.225 245.522 410.225 245.433C410.225 245.344 410.245 245.255 410.284 245.173C410.323 245.09 410.38 245.015 410.452 244.953C410.524 244.89 410.609 244.841 410.702 244.809C410.795 244.776 410.895 244.761 410.995 244.763H421.507C421.703 244.767 421.889 244.84 422.025 244.965C422.162 245.09 422.239 245.258 422.239 245.433C422.239 245.608 422.162 245.776 422.025 245.901C421.889 246.026 421.703 246.099 421.507 246.103Z" fill="#262626"/>
<path d="M436.701 221.12C436.603 221.121 436.505 221.103 436.414 221.07C436.323 221.036 436.24 220.987 436.17 220.924C436.101 220.862 436.045 220.788 436.008 220.707C435.97 220.626 435.95 220.538 435.95 220.45V206.067C435.948 205.978 435.965 205.889 436.002 205.806C436.039 205.722 436.093 205.646 436.163 205.582C436.233 205.518 436.317 205.467 436.409 205.432C436.502 205.398 436.601 205.38 436.701 205.38C436.801 205.38 436.9 205.398 436.993 205.432C437.085 205.467 437.169 205.518 437.239 205.582C437.309 205.646 437.364 205.722 437.4 205.806C437.437 205.889 437.454 205.978 437.452 206.067V220.45C437.452 220.628 437.373 220.799 437.232 220.924C437.091 221.05 436.9 221.12 436.701 221.12Z" fill="#262626"/>
<path d="M441.957 213.929H431.446C431.346 213.931 431.246 213.916 431.153 213.883C431.059 213.85 430.974 213.801 430.902 213.739C430.831 213.677 430.774 213.602 430.735 213.519C430.696 213.437 430.676 213.348 430.676 213.259C430.676 213.169 430.696 213.081 430.735 212.998C430.774 212.916 430.831 212.841 430.902 212.779C430.974 212.716 431.059 212.667 431.153 212.635C431.246 212.602 431.346 212.586 431.446 212.589H441.958C442.153 212.593 442.339 212.666 442.476 212.791C442.613 212.916 442.689 213.084 442.689 213.259C442.689 213.434 442.613 213.602 442.476 213.727C442.339 213.852 442.153 213.925 441.958 213.929H441.957Z" fill="#262626"/>
</svg>
