<svg width="44" height="34" viewBox="0 0 44 34" fill="none" xmlns="http://www.w3.org/2000/svg">
<path d="M5.00049 34C3.83174 34 2.83122 33.5839 1.99893 32.7516C1.16663 31.9193 0.750488 30.9188 0.750488 29.75V4.25C0.750488 3.08125 1.16663 2.08073 1.99893 1.24844C2.83122 0.416146 3.83174 0 5.00049 0H39.0005C40.1692 0 41.1698 0.416146 42.0021 1.24844C42.8343 2.08073 43.2505 3.08125 43.2505 4.25V29.75C43.2505 30.9188 42.8343 31.9193 42.0021 32.7516C41.1698 33.5839 40.1692 34 39.0005 34H5.00049ZM22.0005 19.125L5.00049 8.5V29.75H39.0005V8.5L22.0005 19.125ZM22.0005 14.875L39.0005 4.25H5.00049L22.0005 14.875ZM5.00049 8.5V4.25V29.75V8.5Z" fill="black"/>
</svg>
