<svg width="41" height="39" viewBox="0 0 41 39" fill="none" xmlns="http://www.w3.org/2000/svg">
<path d="M7.75008 0.000244141C3.83341 0.000244141 0.666748 3.16691 0.666748 7.08358V31.9169C0.666748 35.8336 3.83341 39.0002 7.75008 39.0002H33.5834C37.5001 39.0002 40.6667 35.8336 40.6667 31.9169V7.08358C40.6667 3.16691 37.5001 0.000244141 33.5834 0.000244141H7.75008ZM31.2001 8.55024H34.5834C34.6667 8.53358 34.7334 8.60024 34.7501 8.66691V24.5669C34.7501 24.8669 34.7667 25.2002 34.7834 25.5669C34.8167 25.9169 34.8334 26.2502 34.8501 26.5336C34.8501 26.6502 34.8001 26.7502 34.6834 26.8002C33.8167 27.1669 32.9001 27.4336 31.9667 27.6002C31.1167 27.7502 30.2667 27.8336 29.4001 27.8336C28.1667 27.8502 26.9334 27.6002 25.8167 27.0836C24.7667 26.6002 23.9001 25.8002 23.3001 24.8169C22.6834 23.8002 22.3834 22.5336 22.3834 21.0169C22.3669 19.7719 22.6903 18.546 23.3188 17.4711C23.9472 16.3962 24.857 15.5131 25.9501 14.9169C27.1167 14.2669 28.5167 13.9502 30.1667 13.9502C30.2501 13.9502 30.3667 13.9502 30.5167 13.9669C30.6667 13.9836 30.8334 13.9836 31.0334 14.0002V8.73357C31.0334 8.61691 31.0834 8.55024 31.2001 8.55024ZM6.80008 10.0002H10.5834C10.6667 10.0002 10.7501 10.0169 10.8167 10.0336C10.8834 10.0669 10.9334 10.1169 10.9834 10.1836C11.3001 10.9002 11.6667 11.6169 12.0501 12.3336C12.4501 13.0502 12.8334 13.7502 13.2501 14.4502C13.6501 15.1502 14.0167 15.8502 14.3667 16.5669H14.4001C14.7501 15.8336 15.1167 15.1169 15.4834 14.4169C15.8501 13.7169 16.2334 13.0169 16.6167 12.3169C17.0001 11.6169 17.3667 10.9002 17.7334 10.2169C17.7501 10.1502 17.7834 10.0836 17.8334 10.0502C17.8994 10.0137 17.9762 10.0019 18.0501 10.0169H21.5667C21.6501 10.0002 21.7334 10.0502 21.7501 10.1336C21.7667 10.1502 21.7334 10.2169 21.7001 10.2502L16.7001 18.5002L22.0334 27.2502C22.0667 27.3169 22.0834 27.3836 22.0667 27.4502C22.0501 27.5169 21.9834 27.4669 21.8834 27.4836H18.0667C17.8001 27.4836 17.6167 27.4669 17.5001 27.3002C17.1501 26.6002 16.7834 25.9169 16.4334 25.2169C16.0834 24.5336 15.7001 23.8336 15.3001 23.1169C14.9001 22.4002 14.5001 21.6836 14.1001 20.9502H14.0667C13.7167 21.6669 13.3334 22.3836 12.9501 23.1002C12.5667 23.8169 12.1834 24.5336 11.8167 25.2336C11.4334 25.9336 11.0501 26.6502 10.6667 27.3336C10.6001 27.5002 10.4667 27.5169 10.2834 27.5169H6.61675C6.55008 27.5169 6.50008 27.5502 6.50008 27.4669C6.49274 27.4357 6.49192 27.4033 6.49765 27.3718C6.50339 27.3402 6.51556 27.3102 6.53341 27.2836L11.7167 18.7836L6.66675 10.2336C6.61675 10.1669 6.60008 10.1002 6.63341 10.0669C6.66675 10.0169 6.73341 10.0002 6.80008 10.0002ZM30.0334 17.0502C29.3834 17.0502 28.7334 17.1836 28.1501 17.4836C27.5834 17.7669 27.1001 18.1836 26.7334 18.7169C26.3667 19.2502 26.1834 19.9669 26.1834 20.8336C26.1667 21.4169 26.2667 22.0002 26.4667 22.5502C26.6334 23.0002 26.8834 23.4002 27.2167 23.7336C27.5334 24.0336 27.9167 24.2669 28.3501 24.4002C28.8001 24.5502 29.2667 24.6169 29.7334 24.6169C29.9834 24.6169 30.2167 24.6002 30.4334 24.5836C30.6501 24.6002 30.8334 24.5669 31.0334 24.5002V17.1669C30.8834 17.1336 30.7334 17.1002 30.5834 17.0836C30.4001 17.0669 30.2167 17.0502 30.0334 17.0502Z" fill="#FF61F6"/>
</svg>
